HIERARCHY
ROOT Hips
{
  OFFSET 279.157 85.6768 304.565
  CHANNELS 6 Xposition Yposition Zposition Zrotation Xrotation Yrotation
  JOINT LeftUpLeg
  {
    OFFSET 8.64259 1.95398 -2.38835
    CHANNELS 3 Zrotation Xrotation Yrotation
    JOINT LeftLeg
    {
      OFFSET 43.7702 0 0
      CHANNELS 3 Zrotation Xrotation Yrotation
      JOINT LeftFoot
      {
        OFFSET 40.6238 0 0
        CHANNELS 3 Zrotation Xrotation Yrotation
        JOINT LeftToeBase
        {
          OFFSET 12.7242 0 0
          CHANNELS 3 Zrotation Xrotation Yrotation
          End Site
          {
            OFFSET 0 0 0
          }
        }
      }
    }
  }
  JOINT RightUpLeg
  {
    OFFSET -8.2249 1.95398 -2.59336
    CHANNELS 3 Zrotation Xrotation Yrotation
    JOINT RightLeg
    {
      OFFSET 43.5653 0 0
      CHANNELS 3 Zrotation Xrotation Yrotation
      JOINT RightFoot
      {
        OFFSET 40.6238 0 0
        CHANNELS 3 Zrotation Xrotation Yrotation
        JOINT RightToeBase
        {
          OFFSET 12.7242 0 0
          CHANNELS 3 Zrotation Xrotation Yrotation
          End Site
          {
            OFFSET 0 0 0
          }
        }
      }
    }
  }
  JOINT Spine
  {
    OFFSET 0.165834 0.87714 6.61349
    CHANNELS 3 Zrotation Xrotation Yrotation
    JOINT Spine1
    {
      OFFSET 7.38963 1.71661e-005 0
      CHANNELS 3 Zrotation Xrotation Yrotation
      JOINT Spine2
      {
        OFFSET 11.9445 1.14441e-005 0
        CHANNELS 3 Zrotation Xrotation Yrotation
        JOINT Spine3
        {
          OFFSET 14.7254 4.19617e-005 0
          CHANNELS 3 Zrotation Xrotation Yrotation
          JOINT Spine4
          {
            OFFSET 10.9679 0 0
            CHANNELS 3 Zrotation Xrotation Yrotation
            JOINT RightShoulder
            {
              OFFSET 2.46616 -1.6653 3.69651
              CHANNELS 3 Zrotation Xrotation Yrotation
              JOINT RightArm
              {
                OFFSET 13.0012 0 0
                CHANNELS 3 Zrotation Xrotation Yrotation
                JOINT RightForeArm
                {
                  OFFSET 28.7848 1.52588e-005 0
                  CHANNELS 3 Zrotation Xrotation Yrotation
                  JOINT RightHand
                  {
                    OFFSET 26.5688 1.52588e-005 0
                    CHANNELS 3 Zrotation Xrotation Yrotation
                    End Site
                    {
                      OFFSET 0 0 0
                    }
                  }
                }
              }
            }
            JOINT LeftShoulder
            {
              OFFSET 2.38034 -1.29275 -3.7523
              CHANNELS 3 Zrotation Xrotation Yrotation
              JOINT LeftArm
              {
                OFFSET 16.3182 6.10351e-005 0
                CHANNELS 3 Zrotation Xrotation Yrotation
                JOINT LeftForeArm
                {
                  OFFSET 27.0901 0 0
                  CHANNELS 3 Zrotation Xrotation Yrotation
                  JOINT LeftHand
                  {
                    OFFSET 24.5451 1.52588e-005 0
                    CHANNELS 3 Zrotation Xrotation Yrotation
                    End Site
                    {
                      OFFSET 0 0 0
                    }
                  }
                }
              }
            }
            JOINT Neck
            {
              OFFSET 5.0226 -0.0266342 0
              CHANNELS 3 Zrotation Xrotation Yrotation
              JOINT Head
              {
                OFFSET 6.69364 2.86102e-005 0
                CHANNELS 3 Zrotation Xrotation Yrotation
                End Site
                {
                  OFFSET 0 0 0
                }
              }
            }
          }
        }
      }
    }
  }
}
MOTION
Frames:	7
Frame Time:	0.0416667
-358.73 96.6455 332.134 97.2555 28.0321 81.053 -168.677 -4.23683 92.0475 9.70564 50.4189 -15.5207 12.424 -55.758 32.1187 103.2 18.9762 -36.9101 176.532 -3.07265 88.5568 -19.6219 -14.1147 -5.92287 71.25 -6.16273 -9.03481 24.8439 -0.57804 11.8273 8.84426 3.58799 -88.7917 20.1456 17.9402 -1.43009 8.60163 17.8593 -2.24455 -14.9342 17.5128 4.20508 5.07842 17.5128 4.20507 75.2641 66.3093 -28.6023 103.869 17.098 73.2721 -173.139 29.2509 -179.999 6.57807 1.94924 -0.0567542 -105.79 -31.7607 46.024 -29.3987 20.4529 12.6761 -19.5829 73.6725 -0.138117 -65.4356 9.32382 -19.655 -52.4506 -11.1051 -40.2365 -13.9666 -24.1137 -29.5418 
-358.824 96.6598 332.11 97.2354 28.0835 80.9269 -168.84 -4.33919 91.8425 9.08699 50.0697 -15.2054 11.42 -55.2021 30.5629 103.347 19.5839 -35.7477 176.357 -3.09541 88.4687 -19.7301 -13.4247 -5.84744 72.4502 -7.40864 -10.821 21.8155 -0.819476 16.8919 8.87026 3.66871 -88.7743 19.9779 18.0069 -1.36915 8.43504 17.9286 -2.18694 -15.1071 17.5579 4.28483 4.90549 17.5579 4.28483 75.2425 65.3194 -26.9577 103.914 16.1775 72.7062 -173.173 29.5466 -179.999 7.5369 2.15539 0.136783 -105.95 -31.2679 45.4396 -30.1059 21.8447 12.4615 -20.3998 74.6176 -0.146379 -83.3058 20.3946 -27.4432 -51.9852 -11.376 -40.2223 -13.5914 -24.1939 -29.7258 
-359.095 96.6379 332.057 97.1734 28.2534 80.6069 -169.696 -4.17596 90.9229 5.69424 48.8402 -13.2507 11.1379 -53.6324 28.2025 103.222 20.9151 -33.0326 175.64 -3.42027 88.084 -19.2574 -12.2942 -5.47555 75.2176 -11.2257 -16.3251 15.3523 -2.80695 30.5596 8.8245 3.89191 -88.7385 19.5013 17.9545 -1.17241 7.95794 17.8849 -1.98795 -15.5739 17.4492 4.45374 4.43876 17.4492 4.45375 75.5953 62.5571 -22.8202 104.653 12.8318 70.0583 -172.974 30.6043 -179.999 10.2891 2.74741 0.308625 -105.856 -30.3574 44.9967 -32.2 23.9407 11.264 -22.8396 77.8668 -0.184735 -102.964 42.3158 -40.2446 -50.6638 -11.7962 -39.9861 -12.1121 -24.2102 -29.3034 
-359.508 96.4244 332.011 97.0649 28.5695 80.1885 -171.07 -3.24414 89.431 -0.785343 46.4399 -10.1082 13.0601 -50.831 26.4098 102.377 22.6965 -29.0355 174.894 -4.23018 87.662 -16.981 -9.7629 -5.13915 78.116 -17.5536 -24.7933 13.55 -8.20805 53.3608 8.69263 4.23495 -88.7226 18.7684 17.7299 -0.923487 7.22209 17.6715 -1.72848 -16.2786 17.1614 4.61526 3.73407 17.1614 4.61527 77.9618 57.8373 -18.3807 105.64 7.20595 65.7257 -172.695 31.9797 -179.999 14.8532 3.66388 -0.33341 -105.948 -29.6567 44.3736 -34.8419 27.8194 10.4775 -25.8602 81.9194 -0.27623 -96.5473 56.0516 -57.1064 -48.3762 -12.573 -39.0811 -9.93384 -24.093 -28.1277 
-360 96.1429 331.98 96.8979 29.0615 79.7732 -172.085 -2.17884 88.2711 -7.22261 42.7583 -7.71547 16.737 -46.4989 25.0879 100.07 24.4681 -24.0183 174.298 -5.08201 86.8073 -13.3206 -6.67873 -4.88413 79.4546 -25.3794 -35.2127 25.7323 -11.0419 81.1343 8.42029 4.67287 -88.7409 17.8313 17.2141 -0.649353 6.27785 17.1683 -1.42979 -17.1595 16.5896 4.70543 2.85312 16.5896 4.70542 83.2539 50.7809 -14.7222 106.304 -1.27883 59.7931 -172.288 33.4056 -179.999 21.2533 4.62811 -2.79984 -105.787 -29.2534 44.3708 -37.4126 32.0229 8.68908 149.103 86.3268 -179.325 -62.2779 59.2264 -93.6362 -44.954 -13.5271 -37.345 -7.10857 -23.6491 -25.5524 
-360.498 96.0714 331.976 96.6494 29.7578 79.4659 -173.24 -1.70797 87.1365 -12.1804 36.1485 -5.25108 20.8525 -41.1698 23.0617 96.6696 26.0034 -18.2458 173.817 -4.11989 85.0353 -12.4283 -1.957 -4.40137 81.0831 -32.9065 -43.9141 46.8871 -4.68238 100.618 9.81837 6.14749 -86.1501 14.2656 21.3202 4.70489 2.77422 21.5058 3.71802 -20.9036 18.892 11.1002 -0.890995 18.8919 11.1002 99.4925 31.2074 -1.15986 98.9049 -4.06643 54.4427 -169.422 34.5508 -179.999 28.7064 4.94495 -7.76871 -88.74 11.0247 44.0636 -42.8463 41.3356 -23.9677 144.177 77.2303 -179.773 -32.457 48.4304 -122.774 -24.1748 -22.5759 -71.3231 -3.59026 -29.6684 -7.37715 
-360.909 96.4965 332.027 96.2839 30.684 79.3758 -174.43 -1.22283 86.3022 -15.8869 23.4994 -2.82465 25.7091 -34.9486 19.3746 93.6447 27.1481 -12.9815 173.921 -1.20887 82.8989 -15.9678 5.43825 -3.97004 85.376 -38.0819 -47.5503 66.1817 11.4051 102.534 9.06408 6.57088 -86.7615 13.5586 19.5439 3.96933 2.0381 19.6988 3.07158 -21.4724 17.425 9.82191 -1.45978 17.425 9.82191 108.644 21.3177 -2.02163 96.3493 -15.8877 42.3093 -169.639 36.4814 -179.999 36.8309 3.83946 -15.897 -91.1292 5.28855 43.8639 -42.8091 42.7889 -21.673 139.612 64.8622 -179.869 -19.8711 35.2156 -132.724 -20.3284 -23.4467 -61.9851 -1.46336 -26.2599 -5.2994 
